# xmcd
#
# Track frame offsets:
#	150
#	23415
#	31385
#	60472
#	76160
#	100655
#	123277
#	138270
#	156715
#	174297
#	192742
#	204837
#	229635
#	246270
#	259895
#	284585
#
# Disc length: 3935 seconds
#
# Revision: 1
# Processed by: cddbd v1.5.2PL0 Copyright (c) Steve Scherf et al.
# Submitted via: audiograbber 1.83.01
#
DISCID=d50f5d10
DTITLE=Various Artist - The Best Of Kamp Concert Series 1998
DYEAR=1998
DGENRE=Flatpickin
TTITLE0=Whiskey Before Breakfast
TTITLE1=Bury Me Beneath That Weeping Willow Tree
TTITLE2=Sally Goodin
TTITLE3=Wise Maid - Wind That Shakes the Barley
TTITLE4=Wayfaring Stranger
TTITLE5=Bough Mullow House - Broke Down Gambler
TTITLE6=Nine Pound Hammer
TTITLE7=Oh Susannah - St Anne's Reel
TTITLE8=Gospel Plow
TTITLE9=Greensleeves
TTITLE10=Londonderry Aire
TTITLE11=Done Gone
TTITLE12=Shenandoah Valley
TTITLE13=Cincinnati Rag
TTITLE14=Pallet On The Floor
TTITLE15=Maryville
EXTD=
EXTT0=
EXTT1=
EXTT2=
EXTT3=
EXTT4=
EXTT5=
EXTT6=
EXTT7=
EXTT8=
EXTT9=
EXTT10=
EXTT11=
EXTT12=
EXTT13=
EXTT14=
EXTT15=
PLAYORDER=
